<?xml version="1.0" encoding="utf-8"?>
<!-- Generator: Adobe Illustrator 24.1.2, SVG Export Plug-In . SVG Version: 6.00 Build 0)  -->
<svg version="1.1" id="visual" xmlns="http://www.w3.org/2000/svg" xmlns:xlink="http://www.w3.org/1999/xlink" x="0px" y="0px"
	 viewBox="0 0 900 600" style="enable-background:new 0 0 900 600;" xml:space="preserve">
<style type="text/css">
	.st0{fill:#171717;}
	.st1{fill:#0ABF53;}
</style>
<rect class="st0" width="900" height="600"/>
<path class="st1" d="M0,320l16.7,12.2c16.6,12.1,50,36.5,83.3,43.6c33.3,7.2,66.7-2.8,100-13.3S266.7,341,300,347s66.7,29,100,32.8
	c33.3,3.9,66.7-11.5,100-21.5s66.7-14.6,100-3.3s66.7,38.7,100,35.2s66.7-37.9,100-60.2s66.7-32.7,83.3-37.8L900,287v314h-16.7
	c-16.6,0-50,0-83.3,0s-66.7,0-100,0s-66.7,0-100,0s-66.7,0-100,0s-66.7,0-100,0s-66.7,0-100,0s-66.7,0-100,0s-66.7,0-100,0
	s-66.7,0-83.3,0H0V320z"/>
<path class="st1" d="M225.6,238.6c0.8,2.5,1.3,5.2,2.5,7.5c2.7,5.4,2.5,11.2,3.2,16.9c0.1,0.9-0.4,1.9-0.9,2.7c-1,1.5-0.9,3-0.1,4.6
	c0.1,0.1,0.1,0.3,0.2,0.4c3.2,4.4,4,9.3,4.1,14.7c0.2,10.3,1.9,20.5,4.4,30.6c1.2,4.7,2,9.6,2.7,14.4c0.4,2.9-0.1,5.6-2.8,7.5
	c0.6,0.9,1.1,1.8,1.6,2.6c-2,2.6-1.4,5.2,1.8,7.2c2.3,1.5,4.7,2.9,7.1,4.3c0.8,0.5,1.8,0.6,2.8,0.9c0.5,0.1,1.3,0,1.6,0.3
	c2.1,2,4.7,1.7,7.3,1.8c2.5,0.1,5.4,0.2,6.1,3.3c0.7,2.9-1.9,4.1-3.8,5.4c-5.3,3.8-11.3,5.7-17.9,5.6c-1.8,0-3.6-1-5.4-1.3
	c-1.5-0.3-3.1-0.2-4.6-0.2c-0.4,0-0.8,0.3-1.2,0.3c-6.2,0.4-12.3,1.5-18.6-0.6c-3.5-1.1-7.4-1.1-11.1-1.5c-2.2-0.2-4.5-0.1-6.6-0.5
	c-3-0.6-4.1-2.6-3.6-5.5c0.5-2.4,0.7-4.8,1.4-7.2c0.5-1.5,1.5-2.9,2.3-4.3c0.3-0.7,0.6-1.4,0.6-2.1c0-3.2-0.9-6.6-0.1-9.7
	c2.5-10.6,5.6-21,8.3-31.5c0.4-1.7,0.4-3.8-0.2-5.5c-1.5-4.4-2-8.9-2.3-13.5c0-0.7-0.2-1.4-0.6-2c-7.1-12.2-14.1-24.5-21.3-36.7
	c-3.3-5.5-4.9-11.4-5.3-17.7c-0.7-9.4,2-18.1,6.2-26.4c0.9-1.7,1.8-3.3,2.7-5c0.6-1,0.5-1.6-0.8-2c-5.7-1.7-9.2-5.9-11.7-11
	c-1.4-2.9-2.2-6.2-3.4-9.2c-1-2.4-0.7-4.6,0.7-6.7c1.9-2.9,4-4.9,7.9-5.3c3.9-0.4,7.6-2,11.3-3.4c2.1-0.8,4-1.1,6.2-0.9
	c1.9,0.1,4-0.8,5.8-1.7c2.4-1.2,5-1.6,7.3-2.5c4.7-1.8,8.8-0.7,13.3,0c5.8,0.9,11.2,2.8,16.4,5.2c1.7,0.8,3.5,1.7,5.3,2.3
	c2.1,0.7,3.5-0.5,4.8-2.1c2.2-2.7,4.5-5.3,6.8-7.9c9-9.5,24.2-6.2,28.1,6.2c0.8,2.6,1.2,5.5,1.1,8.2c-0.1,1.8-1.3,3.7-2.3,5.4
	c-0.8,1.5-2.2,1.7-3.5,0.1c-0.6,0.6-1.2,1.1-1.5,1.7c-1.1,1.9-2.4,3.1-4.8,2.8c-0.6-0.1-1.5,0.7-1.9,1.3c-0.7,0.9-1.1,1.9-1.6,2.9
	c-0.6,1.4-1.2,2.7-3,1.3c-0.2-0.2-0.8,0.1-1.3,0.2c-3,0.4-5.3,2.2-7.7,4.4c0.2,0.6,0.5,1.5,1,2.3c2.7,4.9,1,10.1,1.2,15.2
	c0,0.3-0.1,0.8-0.3,1c-2.8,3.2-2.4,7.6-4.2,11.1c-0.3,0.6-0.4,1.4-0.2,2c1.1,3.2-0.1,6.3-0.5,9.4c-0.4,2.8-0.5,5.7-0.2,8.4
	c0.5,5.2,1.3,10.4,2.2,15.6c0.4,2.3,1.8,4.4,2.4,6.6c0.9,3.1,1.3,6.3,2.1,9.5c0.3,1,0.9,2.1,1.6,2.8c2.8,2.6,4.2,5.7,4.4,9.4
	c0.2,2.6,0.9,4.8,2.6,6.9c4,5.2,7.8,10.5,11.8,15.7c1.8,2.4,4,4.6,6.1,7.1c2.7-1.6,5.5-3.3,8.3-5c1.6-1,2.7-0.9,3.8,0.7
	c3.6,5,7.4,10,11,15c2.9,3.9,3.9,8.2,3.1,13c-0.7,4.2-1.3,8.4-1.7,12.6c-0.2,1.9-0.9,2.1-2.5,1.8c-4.3-0.8-8.7-1.4-13-2.1
	c-4.6-0.7-8.2-2.9-11-6.6c-3.7-5-7.3-10-11.1-14.9c-1.3-1.6-1.1-2.7,0.5-4c2.5-2,4.8-4.2,7.4-6.5c-3.6-5.1-7.1-10-10.6-15
	c-1.7-2.3-3.6-4.5-5.1-6.9c-1.4-2.2-3.4-2.9-5.8-3.5c-5.8-1.5-10.5-5.9-8.9-13.1c0.4-1.7,0.1-3-1-4.4c-8-10.6-16-21.3-24-32
	c-0.4-0.5-0.8-0.9-1.2-1.4C226,238.4,225.8,238.5,225.6,238.6z M240.3,248c-0.4-4.9-0.7-9.4-1.2-13.9c-0.5-4.8-1.3-9.5-1.9-14.3
	c-2.4,0.2-4,0.6-4.7,2.7c-0.7,2.1-2,4-2.6,6.1c-0.4,1.6-0.8,3.9,0,5.1C233,238.6,236.7,243.1,240.3,248z M222.7,356.1
	c0.3-1.1,0.6-2.1,0.9-3.2c0.3-1.2,0.4-2.5,1-3.6c1-1.7,1.1-3.3-0.6-4.4c-1.8-1.2-3-2.1-3-4.7c0-2.2-0.4-4.3,0-6.5c0.2-1-0.2-2-0.3-3
	c-1.7,3.8-0.5,9.1-6.4,10.5c-0.2,0.7-0.4,1.6-0.5,2.5c-0.4,3-0.3,3-3,3.9C214,351.4,216.8,355.6,222.7,356.1z"/>
<path class="st1" d="M413.8,340.7c-0.3,2.8-0.9,5.7-0.9,8.5c0,4.2,0.6,8.4,0.8,12.6c0.1,2.4-0.1,4.8,0,7.2c0.1,1,0.6,2.1,0.8,3.1
	c0.2,0.9,0.6,2-0.9,2.4c-0.2,0.1-0.3,0.8-0.3,1.2c0.2,1.9,0.4,3.7,0.7,5.6c0.3,1.6-0.2,2.4-1.8,2.8c-0.5,0.1-1,0.2-1.5,0.2
	c-3,0.2-3.6-0.3-3.8-3.2c-0.1-1.9-0.1-3.8-0.1-5.7c0-0.3-0.2-0.7-0.4-0.8c-1.5-0.7-1.6-2-1.6-3.4c0-3.9-0.1-7.9-1.4-11.7
	c-0.4-1.3-0.5-2.7-0.8-4c-0.1-0.5-0.3-1-0.8-1.5c-0.2,1.6-0.6,3.2-0.6,4.9c-0.1,3.8,0,7.6-0.2,11.3c-0.1,1.2-0.6,2.6-1.2,3.7
	c-0.9,1.5-0.9,3.1-0.7,4.7c0.2,1.9-0.1,2.3-1.9,2.9c-1.7,0.6-3.3,1.2-4.9,1.9c-2.2,0.9-4.4,1.2-6.6,0.2c-1.4-0.6-1.6-1.8-0.4-2.7
	c1.5-1.2,3-2.3,4.5-3.4c0.2-0.1,0.4-0.3,0.7-0.3c0.9-0.2,2,0.2,2-1.3c0-0.8,0.7-1.7-0.3-2.4c-0.1-0.1-0.1-0.6-0.1-0.8
	c-0.1-1.2-0.1-2.3-0.2-3.5c-0.1-1.9,0-3.8-0.1-5.7c-0.2-3.6-0.4-7.1-0.6-10.7c-0.1-2.4-0.3-4.8-0.5-7.2c-0.2-1.9-0.6-3.7-0.8-5.5
	c-0.4-4.1-0.7-8.1-1-12.2c-0.1-1.5,0.1-3,0.2-4.7c-2.6,0.5-5,1-7.4,1.5c-0.9,0.2-1.9,0.2-2.9,0.4c-0.7,0.1-1.4,0.3-2.2,0.5
	c0.6,1.7,1,3.2,1.7,4.4c0.8,1.4,1.8,2.7,2.9,4c0.7,0.8,1.6,1.3,2.4,1.9c0.9,0.7,1.1,1.6,0.4,2.6c-2.4,3.4-4.8,6.8-7.2,10.1
	c-0.9,1.3-2.3,1.6-3.4,0.4c-1.8-1.9-4-2.3-6.5-2.2c-1.3,0-2.6-0.2-4-0.5c-3.3-0.5-6.5-0.4-9.7,0.4c-1.3,0.3-2.3,0.8-2.6,2.3
	c-0.1,0.4-0.9,0.9-1.4,0.9c-2.2-0.2-4-1.3-5.4-3c-0.7-0.8-0.3-1.7,0.7-1.6c5.3,0.9,10.1-1.8,15.1-2.2c1-0.1,2.1-0.2,3.1-0.5
	c0.4-0.1,0.9-0.4,1.1-0.8c0.1-0.2-0.4-0.7-0.7-1c-0.7-0.7-1.6-1.2-2.3-1.9c-2.1-1.9-2.6-4.3-1.1-6.7c2.9-4.4,6.2-8.4,11.1-10.8
	c1.5-0.7,2.7-1.5,4.6-1.8c3.5-0.5,6.9-1.9,10.4-2.9c0.9-0.3,1.2-0.8,1.1-1.7c-0.3-2.8-0.5-5.6-0.8-8.4c-0.1-1.3-0.2-2.7-0.1-4
	c0.2-2.1,0.9-3.9,2.8-5.1c1-0.6,1.9-1.4,2.8-2.2c0.3-0.3,0.5-0.9,0.4-1.2c-0.1-0.3-0.7-0.5-1.1-0.5c-1.5,0.1-2.8,0.2-3.3-1.8
	c-0.2-1-0.7-2.2-1.5-2.8c-1.4-1-1.5-2.1-0.9-3.5c0.1-0.3-0.3-0.9-0.6-1.2c-2.5-2.6-2.8-6.9-0.2-9.6c2.7-2.7,6.1-4.2,10-3.9
	c3.5,0.3,6.2,2.6,6.9,6.1c0.7,3.1,0.6,6.2-0.3,9.2c-0.6,2.1,0.3,4,2.4,4.8c1.6,0.6,3.2,1.2,4.8,1.9c4.1,2,6.3,5.6,7.5,9.8
	c1,3.5,1.9,7.1,2.8,10.7c0.1,0.3,0.3,0.5,0.3,0.8c0.3,1.6,0.8,3.2,0.6,4.7c-0.5,4.1-1.3,8.1-2,12.1c-0.1,0.4-0.2,0.8-0.4,1.3
	c-0.3,1-0.7,2-0.9,3c-0.1,0.7,0,1.4,0,2.1C416.7,339.8,416,340.6,413.8,340.7z M370.4,324.3c-3.6,2.5-6.5,5.6-8.9,9.3
	c-0.1,0.2-0.3,0.5-0.2,0.7c0.1,0.5,0.2,1.2,0.5,1.5c0.3,0.2,1.1,0.2,1.5,0c0.9-0.5,1.8-1.1,2.4-1.9c1.5-1.7,3-3.5,4.4-5.3
	c1.4-1.8,1.5-1.8,3.5-0.7c0.3,0.1,0.7,0,1,0C373.2,326.6,371.9,325.5,370.4,324.3z"/>
<path class="st1" d="M326.5,255.5c-2.8,4.8-2.7,10.3-3.9,15.5c-0.3,1.1-0.3,2.3-0.5,3.7c4.1-0.9,5.8-4.3,8.5-6.6
	c-0.4,0.6-0.7,1.3-1.2,1.8c-1.8,1.8-3.6,3.6-5.4,5.3c-1.4,1.3-1.9,2.9-1.8,4.7c0,0.5,0.1,1.1,0.4,1.8c0.1-0.2,0.2-0.5,0.3-0.7
	c-0.3,3.4-0.1,6.6,0.1,10.1c8.9-9.3,17-18.6,20-31.3c-1.3,5.6-3.3,10.9-6.4,15.9c0.4,0.1,0.7,0.2,1.1,0.2c-0.1,0.1-0.2,0.2-0.2,0.1
	c-1.1-0.2-1.7,0.3-2.2,1.2c-1.3,2-2.6,3.9-3.9,5.9c0.4-0.1,0.8-0.1,1.2-0.2c-4.3,1.5-5.8,5.8-8.8,8.6c-0.2,0.2-0.5,0.6-0.5,1
	c-0.1,2.7-0.2,5.4-0.2,8c0,0.1,0.4,0.3,0.6,0.4c-0.8,1.2-0.8,2.8-0.1,3.5c-0.2,1-0.4,1.8-0.5,2.6c-0.6,11.1-0.2,22.1,0.3,33.2
	c0,0.3,0.1,0.8,0.3,1c0.9,0.9,1.8,1.7,2.7,2.5c0.3,0.2,0.8,0.2,1.4,0.4c0,0,0,0,0,0c0,0,0.2,0.4,0.3,0.5c1.7,2.8,5.2,5,5.2,5
	c2.8,1.8,3.3,1.2,5.9,2.7c1.9,1.1,2.4,1.9,5.5,4.8c6,5.7,7.8,6.5,7.6,7.9c-0.3,1.5-2.7,2.2-6.9,3.3c-9.5,2.4-14.3,3.6-16.9,3.7
	c-16.6,0.7-33.4-14.1-34.3-14.9c-0.1-0.1-0.2-0.2-0.2-0.3c1.9-1.7,3.8-3.5,5.9-4.9c1-0.7,2.7-0.3,4-0.5c0.7-0.1,1.5-0.3,1.9-0.8
	c1.8-1.8,3.8-3.2,6.5-3.3c0.4,0,0.9-0.4,1.1-0.7c0.7-1.7,2.2-2.6,3.8-3.2c3-1.2,3.7-3.2,3.6-6.3c-0.2-8.6,0.1-17.1,0.2-25.7
	c0-0.7,0.1-1.4,0.2-2c0.1-2.4-0.2-4.7-1.9-6.6c-0.7-0.8-1.1-2-1.6-3c-0.8-1.4-1-3.3-3-3.8c-1.5-2.5-4.2-3.3-6.5-4.7
	c-1-0.6-2-1.1-3.2-0.6c-0.4,0.1-1-0.2-1.5-0.4c2.6-0.5,2.9-1.1,11.8,4.7c-0.5-1-1.1-2-1.6-3c-0.9-1.5-1.7-3.1-2.7-4.6
	c-0.4-0.6-1.2-0.9-1.9-1.4c-0.6-0.4-1.3-0.8-1.9-1.3c-0.8-0.8-1.3-1.8-2.2-2.6c-0.9-0.8-2-1.5-2.8-2.1c0,0,0.2,0,0.5,0
	c-1.1-1.5-2.3-3.1-3.4-4.6c0.1-0.1,0.2-0.2,0.3-0.2c0.2,0.3,0.5,0.6,0.7,0.9c2.2,3.4,5.2,6.2,8.5,8.4c2.5,1.7,3.7,4,5,6.3
	c2.3,4,4.4,8,6.6,12c0.1,0.2,0.3,0.4,0.5,0.7c0.7-1,0.2-1.8-0.3-2.5c-1.1-1.7-2.1-3.4-3.1-5.1c-0.3-0.6-0.4-1.4-0.6-2.1l0,0
	c1.1,1.9,2.1,3.8,3.2,5.6c0.2,0.4,0.6,0.7,0.9,1.1c0.2,0,0.3-0.1,0.5-0.1c0-2.7,0.2-5.4-0.1-8.1c-0.1-1.2-1.1-2.3-1.5-3.5
	c-1-3.2-2-6.4-3-9.6c-0.3-1-1-1.6-1.8-2.3c-1.7-1.4-3.1-3-4.7-4.6c1.2,1,2.3,2,3.5,3c0.5,0.5,1.1,0.9,1.6,1.4
	c0.1-0.1,0.3-0.3,0.4-0.4c-0.6-0.8-1.2-1.6-1.9-2.2c-0.8-0.7-1.6-1.3-2.4-2c-0.6-0.5-1.3-1-1.9-1.5c-0.1,0-0.3,0.2-0.5,0.3
	c-1.1-1.3-2.3-2.6-3.3-3.7c0.1,0.1,0.4,0.3,1.1,0.8c-0.7-1.7-1.4-3.1-2-4.6c0.1,0,0.1-0.1,0.2-0.1c0.5,1.1,1,2.2,1.6,3.3
	c0.5,0.9,1.1,1.8,1.7,2.6c0.3,0.3,0.8,0.3,1.2,0.4c1.5,1.4,3,2.7,4.6,4.1c0.1-0.1,0.2-0.1,0.4-0.2c-1.4-3-3-6-3.6-9.3
	c-0.6-3.4-1.4-6.7-2.1-10c0.1,0,0.3-0.1,0.4-0.1c0.1,0.6,0.2,1.3,0.4,1.9c0.8,3.4,1.4,6.9,2.4,10.2c0.9,2.7,2.2,5.3,3.4,8
	c0.1,0.2,0.4,0.4,0.6,0.5c1.5,0.8,3,1.5,4.7,2.4c0.7-2.3,0.5-4.4-1.2-6.2c0.2-0.1,0.3-0.2,0.5-0.2c0.2,0.4,0.5,0.8,0.7,1.2
	c0.1-0.1,0.2-0.1,0.4-0.2c-0.1-1.5-0.2-2.9-0.2-4.4c0-0.6,0-1.3,0-1.9c0.1-1.9,0.3-3.8-2.2-4.6c0.1-0.1,0.3-0.2,0.4-0.3
	c0.5,0.4,1.1,0.7,1.9,1.2c0.1-2.2,0.5-4.2-0.2-6.2c-1-2.8-2.1-5.6-3.1-8.4c-0.5-1.4-0.8-2.8-1-4.2c1.3,4,2.6,7.9,4,11.9
	c0.2,0,0.3,0,0.5-0.1c0.7-5.5,1.4-11,2.1-16.5c0.1,0,0.2,0,0.3,0c-0.6,5.6-1.1,11.3-1.7,17.1c1-0.2,2-0.1,2.7-0.6
	c0.6-0.4,0.8-1.4,1.3-2.3C325.9,253.7,326.2,254.6,326.5,255.5z M321,290.5c0.2,0,0.4-0.1,0.6-0.1c-0.2-3.8-0.4-7.6-0.6-11.4
	c0-0.2-0.1-0.6-0.3-0.7c-1.4-0.8-2.9-1.6-4.5-2.5C317.9,280.9,319.4,285.7,321,290.5z M324.3,259.7c-3.1,2.8-3,5.1-2.3,11.2
	C322.8,267,323.5,263.5,324.3,259.7z M324.9,255.5c-0.8,0.2-1.6,0.3-2.4,0.5c-0.3,0.1-0.7,0.4-0.7,0.6c-0.1,1.5,0,3.1,0,4.9
	C323.6,259.7,325.2,258.1,324.9,255.5z M353.2,356.7"/>
<path d="M592.2,147.4c-0.7-1.2-1.5-2.4-2.2-3.6c2.2-1.9,4.2-4,6.6-5.5c1.5-0.9,3.6-1,5.1-1.3C598.7,140.3,595.5,143.8,592.2,147.4z"
	/>
<path d="M557,288.3c-2-6.3-4-12.6-5.9-18.9c0.6-0.2,1.1-0.3,1.7-0.5c1.4,6.5,2.8,13,4.1,19.5C556.9,288.4,557,288.3,557,288.3z"/>
<path class="st1" d="M882.6,295.2c0.8,0.7,1.3,1.2,1.9,1.7c-0.1,0.2-0.2,0.3-0.3,0.5c-2.6-0.1-4.5-2.4-7-2.8
	c-0.1,0.1-0.2,0.2-0.2,0.3c0.8,0.8,1.7,1.5,2.7,2.4c-1,0.3-1.8,0.6-2.8,0.9c0.6,0.8,1,1.5,1.6,2.5c-2.5,0.3-3.9-1.3-5.6-2.3
	c-0.1,0.4-0.1,0.7-0.2,0.9c-0.5,1.5-1.5,1.8-2.7,0.8c-1-0.8-2-1.7-3-2.6c-0.3-0.3-0.7-0.5-1.2-0.6c0.3,0.9,0.5,1.9,0.9,2.8
	c0.5,1.1-0.3,1.5-0.9,2.1c-0.6,0.6-1.2,0.4-1.7-0.2c-0.3-0.3-0.6-0.6-1-1.2c-0.4,0.9-0.8,1.6-1.2,2.4c-0.3-0.3-0.6-0.6-0.7-0.8
	c-0.7-1.1-1.3-1.8-2.6-0.7c-0.2,0.2-0.8-0.1-1.1-0.2c-0.2-0.1-0.4-0.4-0.5-0.6c-0.5-1.4-1.4-2-2.9-1.6c0.1,0.3,0.2,0.7,0.4,1.4
	c-1.7-0.7-3.1-1.2-4.5-1.8c-0.1,0.1-0.1,0.2-0.2,0.3c0.3,0.5,0.7,1,0.9,1.3c-0.3,0.9-0.5,1.6-0.8,2.5c-0.1,0-0.4-0.1-0.8-0.1
	c-1.7-0.4-3.4-1-5.3-0.1c-0.5,0.3-1.5-0.4-2.3-0.6c0,0.5-0.1,1-0.2,1.9c-0.8-0.6-1.4-1-2-1.4c-0.5-0.3-0.9-1-1.5-0.2
	c0,0-0.1,0.1-0.1,0.1c-0.2,0-0.6,0-0.7-0.1c-1.4-1-3.8,0.2-4.6-2.2c-0.2-0.7-0.7-1.4-1.3-2c0,0.4,0,0.9,0,1.3
	c-0.1,0.1-0.2,0.1-0.3,0.2c-1-1.2-1.9-2.3-2.9-3.5c-0.1,0-0.3,0.1-0.4,0.1c-0.1,0.5-0.4,1.1-0.3,1.6c0.3,2.3,0.8,4.5,1.2,6.7
	c0.1,0.6,0.4,1.1,0.5,1.6c0.1,0.4-0.1,0.7-0.1,0.8c-0.4,1.8,4.9,14.7,1.8,19.2c-1.8,2.5-6.7,2.9-9.4,3.1c-1,0.1-2.3,0.1-2.9,0.1
	c-3.6,0.1-5.5,0.1-6.1-0.2c-3.7-1.7,0.9-19.6,1.6-22.2c0.1-0.2,0.2-0.7,0.5-1.3c2-3.7,2.5-7.8,2.6-11.9c0-0.9-0.2-1.5-1.3-1.6
	c-0.4,0-0.7-0.3-1.1-0.5c-0.3-0.2-0.6-0.5-1-0.8c-0.2,1.4-0.4,2.7-0.7,4.3c-0.6-0.5-0.8-0.7-1.2-1c-0.5,1.7-1.8,2.7-3.6,3.4
	c0.1-0.9,0.2-1.6,0.2-2.2c-0.1-0.1-0.2-0.1-0.3-0.2c-0.5,0.7-1,1.4-1.5,2.1c-0.2,0.3-0.3,0.6-0.5,0.9c-1.4,2.6-2,2.8-4.6,1
	c-0.2,0.5-0.4,0.9-0.6,1.3c-0.2,0.3-0.3,0.8-0.5,0.9c-1.3,0.1-1.8,1-2.1,2.1c-0.3-0.1-0.4-0.1-0.5-0.2c-0.8-1.2-1.4-1.1-2.3-0.1
	c-0.9,1.1-1.8,0.8-2.1-0.6c-0.2-0.8-0.2-1.5-0.4-2.6c-0.6,0.6-1.1,1-1.5,1.4c-0.3,0.3-0.5,0.6-0.8,0.8c-0.8,0.5-1.9,1.5-2.5,1.3
	c-1.1-0.4-0.4-1.7-0.3-2.6c0-0.2,0-0.3,0-0.8c-0.5,0.5-0.8,1-1.2,1.3c-0.7,0.6-1.5,1.2-2.3,1.5c-1.7,0.7-2.3,0.3-2.6-1.5
	c-0.6,0.5-1.1,1-1.7,1.3c-0.3,0.1-1,0-1-0.2c-0.2-0.9-0.7-1-1.5-0.8c-1.1,0.2-1.1-0.4-0.7-1.2c0.4-0.8,0.9-1.5,1.3-2.3
	c-2.3,0.4-4.3,2.1-7.2,1.7c1.2-1.3,2.2-2.4,3.2-3.5c0-0.1-0.1-0.2-0.1-0.3c-0.9,0.2-1.9,0.5-2.8,0.6c-0.8,0.1-2,0.7-2.3-0.5
	c-0.3-1.1,0.9-1.2,1.7-1.5c1.7-0.5,3.5-0.9,5.3-1.3c0.5-0.1,1.1-0.4,1.7-0.6c-2.1-0.7-4-0.5-5.7,0.8c-0.4,0.3-1.1,0.3-1.8,0.5
	c0-0.8,0.1-1.3,0.1-2.3c-1.2,0.8-2.1,1.4-3.1,2c0-0.4,0-0.7,0.1-1.2c-0.5,0.2-0.9,0.4-1.4,0.7c0.1-0.7,0.1-1.2,0.2-1.9
	c-1.6,0.6-2.6,2-4.6,2c0.4-0.8,0.7-1.4,1.1-2.2c-0.7,0.1-1.2,0.3-1.7,0.3c-0.3,0-0.8-0.1-0.9-0.3c-0.1-0.2-0.1-0.7,0.1-1
	c0.5-0.6,1.2-1.1,2-1.9c-2.7,0.1-4.9,1.9-7.7,1.2c1.5-2.4,4.5-2.2,6.3-4.2c-1.3-0.3-2.5-0.6-3.6-0.8c0-0.2,0-0.3,0.1-0.5
	c1.6-1.3,3.6-0.7,5.7-0.7c-0.3-0.7-0.6-1.1-0.9-1.7c1.3,0,2.4,0,3.7,0c-0.1-0.4-0.2-0.7-0.3-1.1c1.6-0.4,2.9,0.2,4.3,0.7
	c0.7,0.2,1.5,0.5,2.2,0.4c2.5-0.3,5-0.6,7.5-1.1c1.4-0.3,1.7-0.9,1.6-2.8c-0.7,0.6-1.3,1.2-1.9,1.7c-0.3,0.2-0.8,0.4-0.9,0.3
	c-0.3-0.2-0.5-0.7-0.4-1c0.1-0.6,0.4-1.1,0.7-1.7c0.2-0.4,0.6-0.8,0.7-1.3c-2.3,1.7-4.1,4-6.9,5.3c-0.5-1.5,1.2-2.8,0.4-4.1
	c-1.3,0.8-2.4,1.5-3.5,2.2c-0.9,0.5-1.4,0.2-1.6-0.8c-0.2-0.9-0.4-1.7-0.6-2.6c-0.8,0.3-1.7,0.5-2.5,0.8c-0.3,0.1-0.6,0.2-0.9,0.2
	c-1,0.1-1.3-0.4-0.9-1.3c0.3-0.6,0.9-1.1,1.3-1.7c0.3-0.4,0.6-0.7,0.9-1c-0.1-0.1-0.1-0.2-0.2-0.3c-0.7,0.2-1.5,0.5-2.2,0.7
	c-1.6,0.2-3.2,0.5-4.8,0.5c-0.5,0-1.1-0.7-1.6-1c0.5-0.4,1-1,1.5-1.1c1.1-0.3,2.3-0.2,3.4-0.4c0.6-0.1,1.1-0.3,1.7-0.4
	c0-0.2,0.1-0.4,0.1-0.6c-1-0.6-2.1-1.2-3.5-1.9c0.9-0.1,1.6-0.3,2.2-0.3c3.6,0,7.2,0,10.9-0.1c1.3,0,2.6-0.1,3.8-0.2
	c0.6-0.1,1.1-0.4,1.6-0.6c0-0.1-0.1-0.2-0.1-0.3c-0.4,0-0.7,0-1.2,0.1c-0.1-0.3-0.1-0.7-0.2-1c-1.2,0.2-2.3,0.4-3.5,0.6
	c0-0.1-0.1-0.3-0.1-0.4c0.3-0.4,0.7-0.8,1-1.2c-0.1-0.1-0.1-0.2-0.2-0.3c-1.2,0.4-2.5,0.8-4,1.3c0.2-0.7,0.3-1,0.5-1.3
	c-0.8-0.2-2.1,0.7-2.3-1c-0.4,0.1-0.8,0.3-1.1,0.3c-0.5,0-0.9-0.2-1.4-0.4c0.2-0.5,0.2-1.1,0.5-1.4c0.8-0.7,1.7-1.1,2.8-1.8
	c-2.4-0.2-5,1.3-7-1.7c1-0.2,1.7-0.3,2.4-0.4c1.2-0.1,2.4,0,3.5-0.8c0.6-0.4,1.8-0.1,2.7-0.1c1-2.2,0.9-2.7-1-4.1
	c-0.3,0.2-0.5,0.5-0.8,0.7c-1.2,1.1-1.7,1.1-3.1,0.1c-0.3-0.2-0.6-0.4-0.9-0.5c-1.3-0.2-2.2-0.7-2.1-2.3c0-0.2-0.6-0.5-0.9-0.5
	c-1.2-0.1-1.5-0.5-0.9-1.4c0.6-0.9,1.5-1.6,2.3-2.5c-2.7-0.1-5.3-0.5-7.7-2.5c2.9-1.3,5.5-0.2,8.3,0.3c-0.7-0.8-1.2-1.3-1.6-1.9
	c-0.6-0.8-0.4-1.3,0.6-1.2c1.1,0.1,2.3,0.3,3.4,0.5c0.8,0.2,1.7,0.4,2.7,0.7c-0.8-1.9-0.6-2.3,1.3-2c1.7,0.2,3.3,0.8,5,1.1
	c1.3,0.2,2.7,0.4,4,0.2c2.4-0.5,4.8-1.4,7.2-2.2c1.6-0.6,2.6-1.7,2.7-3.6c-1.1,0.6-2.1,1.2-3.1,1.6c-0.6,0.2-1.3,0.1-1.9,0.1
	c0.1-0.6,0.2-1.2,0.4-1.8c0.1-0.2,0.2-0.5,0.5-1c-0.8,0.6-1.3,1-1.8,1.4c-0.9-1.5-0.9-1.5-3.2-1.9c0.3-0.4,0.5-0.8,0.9-1.3
	c-1.3,0.2-2.5,0.5-3.6,0.7c-1,0.2-2,0.2-1.9-1.3c-1,0.2-1.8,0.5-2.7,0.7c-0.1-0.1-0.2-0.2-0.2-0.4c0.4-0.5,0.9-1.1,1.5-1.8
	c-1.1-0.2-2.1-0.2-3-0.5c-0.6-0.2-1-0.6-1.5-1c0.5-0.3,1-0.7,1.5-1c0.3-0.1,0.7-0.1,1-0.2c-2.3-0.8-4.5-1.5-6.1-3.6
	c4.5,0.7,8.8,1.3,13.3,1.9c-0.1-0.4-0.1-0.5-0.2-0.6c-0.3-0.5-0.7-0.9-1-1.4c0.6,0,1.4-0.2,1.8,0.1c2.4,1.9,5.1,1.6,7.7,1
	c3.5-0.9,6.9-2,10.4-3c0.5-0.1,0.8-0.5,1.3-0.8c0-0.1-0.1-0.2-0.1-0.3c-0.4,0-0.8-0.1-1.2-0.1c-1.1,0-2,0.3-2.7-1.1
	c-0.5-1.1-1.3,0-1.6,0.3c-1-0.2-1.8-0.5-2.6-0.5c-1.2,0-1.4-0.2-1-1.4c0.1-0.2,0.2-0.5,0.5-1.1c-1,0.7-1.6,1.3-2.4,1.6
	c-0.5,0.3-1.2,0.3-1.8,0.4c-0.1-0.6-0.2-1.2-0.2-1.7c0-0.4,0.1-0.9,0.2-1.5c-1,0.7-1.8,1.2-2.7,1.7c-1.3,0.7-1.7,0.6-2.3-0.8
	c-0.4-0.9-0.9-1.4-1.8-0.5c-0.7,0.7-1.6,0.8-2.7,0.2c0.5-0.8,1-1.6,1.5-2.4c-0.1-0.1-0.2-0.2-0.3-0.3c-0.4,0.4-0.9,0.7-1.3,1.1
	c-0.8,0.6-1.6,1.3-2.4,0c-0.1-0.1-0.2-0.2-0.3-0.2c-1.9,0.3-3.3-2.2-5.4-0.4c-0.1-0.2-0.1-0.5-0.2-0.7c1.2-0.9,2.3-1.8,3.8-2.9
	c-1.1-0.3-2-0.4-2.9-0.7c-0.8-0.3-1.5-0.9-2.4-1.5c0.5-0.3,0.7-0.5,0.8-0.6c2.9-0.4,5.8-0.9,8.8-1.2c3-0.3,6-0.3,9-0.5
	c2.8-0.2,5.5-0.5,8.3-0.8c0.6-0.1,1.3-0.4,1.9-0.6c0-0.2,0-0.3,0-0.5c-0.6-0.1-1.1-0.1-1.6-0.2c-1.1-0.3-2.2-0.6-3.2-1.1
	c-0.3-0.1-0.4-0.7-0.6-1.1c0.3-0.1,0.7-0.4,1-0.4c0.8-0.1,1.6,0,2.4-0.1c0.9-0.2,1.7-0.6,2.6-0.9c0.6-0.2,1.2-0.3,1.7-0.5
	c1.7-0.7,3.4-1.3,5.1-2.1c0.3-0.2,0.6-0.6,0.8-0.9c-1.1-1.1-2.8,1.1-3.6-1.2c-0.6,1.2-1.1,2.1-1.6,3.1c-0.2,0-0.3-0.1-0.5-0.1
	c-0.2-0.6-0.3-1.3-0.5-2.2c-0.7,0.8-1.3,1.5-2.1,2.4c-0.4-0.8-0.7-1.6-1.2-2.7c-0.6,3.1-2.2,3.8-4.9,3.4c-1.4-0.3-1.2-1.3-1.4-2.4
	c-0.5,0.7-0.9,1.4-1.3,1.8c-0.3,0.3-0.8,0.3-1.1,0.4c-0.1-0.3-0.1-0.7-0.2-0.9c-0.2-0.4-0.5-1-0.8-1c-1-0.1-1.9,0.1-2.9,0.2
	c-0.5,0-1,0.1-1.7,0.2c0.5-2.3-1.5-1.3-2.4-1.9c0.5-0.6,0.9-1.2,1.4-2c-2.3-0.3-4.4-0.9-6-2.8c0.5-0.2,0.8-0.4,1-0.4
	c1.1-0.1,2.3-0.2,3.4-0.2c1.2,0,2.1-0.3,2.4-1.8c0.1-0.4,0.8-0.9,1.3-0.9c2.6-0.4,5.3-0.5,8-1c1.3-0.2,2.6-0.9,3.9-1.5
	c1.1-0.5,2.1-1.1,3.3-1.7c-0.2-0.4-0.7-1-0.9-1.6c-0.2-0.5-0.5-1.2-0.3-1.6c0.2-0.3,1-0.4,1.5-0.4c0.6-0.1,1.2,0,1.9,0
	c-0.9-1.6-2.2-2-3.6-1c-1,0.7-1.7,1.6-2.7,2.3c-0.7,0.6-1.4,1.6-2.5,0.3c-0.2-0.3-1.1,0-1.7,0c0-0.6,0-1,0-1.5
	c-0.7-0.1-1.5,0.1-1.9-0.3c-0.4-0.4-0.4-1.3-0.5-2c-0.5,0.2-0.9,0.3-1.3,0.5c-1.5,0.4-2.1-0.1-2.5-1.5c-0.2-0.6-0.8-1-1.4-1.4
	c-0.7-0.5-1.6-0.8-2.3-1.4c1.6-1.1,3.3,0,4.8-0.4c0.3-1.6,1-1.8,2.4-0.8c2,1.4,6.2,1.3,8.1-0.2c0.2-0.1,0.2-0.3,0.5-0.8
	c-0.8,0-1.3-0.1-1.8,0c-2,0.3-2.4-0.1-2.1-2.1c-0.6,0.2-1.1,0.5-1.7,0.6c-1.4,0.3-2-0.2-2.1-1.6c0-0.3-0.5-0.8-0.8-0.9
	c-0.5-0.1-1.1,0-1.8,0c0.9-2.9-1.9-2.9-2.9-4.2c0.8-1.4,1.4-1.6,2.8-1c0.5,0.2,1.1,0.4,1.7,0.4c1.6,0.1,1.7,0,1.6-1.5
	c-0.1-0.9,0.3-1.2,1.1-0.9c0.4,0.1,0.8,0.3,1.1,0.5c1.8,1.4,3.9,1.5,6,1.1c2.2-0.5,4.4-1,6.5-1.6c0.1-0.2,0.1-0.4,0.2-0.6
	c-0.9-0.6-1.8-1.2-2.7-1.7c-0.3-0.2-0.6-0.3-0.8-0.5c-0.6-0.6-1.1-1.3-1.6-2c-1-1.2-2-2.5-3.1-4c-0.6,0.8-1.1,1.4-1.6,2.1
	c-0.4-0.8-0.5-1.5-1-1.9c-0.4-0.3-1.2-0.2-1.8-0.3c-0.3-0.1-0.7-0.3-0.7-0.5c-0.2-1.2-1.1-1.1-1.9-1c-0.3,0-0.7,0-1.1-0.1
	c-0.8-0.2-1.3-0.6-0.6-1.4c0.1-0.1,0.2-0.4,0.3-0.7c-2-0.5-3.9-0.9-5.1-2.6c0-0.2,0.1-0.3,0.1-0.5c2.2,0.3,4.3,0.6,6.8,0.9
	c-0.3-0.7-0.5-1.1-0.6-1.6c-0.1-0.3-0.2-0.9-0.1-0.9c0.3-0.2,0.8-0.3,1.1-0.1c0.9,0.4,1.6,1,2.4,1.6c0.6,0.4,1.1,0.8,1.7,1.2
	c0.2,0,0.3-0.1,0.5-0.1c0.1-0.9,0.4-1.9,0.1-2.7c-0.3-0.8-1.1-1.4-2-2.4c1.9-0.2,3.6-0.5,5.2-0.5c0.6,0,1.2,0.7,1.9,1.1
	c0.8-0.2,1.2-1,0.8-1.7c-0.3-0.6-1-1.3-1.7-1.5c-0.6-0.2-1.4,0.3-2.1,0.5c-0.2-0.7-0.2-1.6-0.6-1.8c-0.5-0.3-1.2,0-2,0
	c0.6-3-1.9-1.1-2.9-2c0.4-0.5,0.8-1.1,1.1-1.6c-0.1-0.1-0.2-0.2-0.3-0.2c-0.5-0.1-1.1-0.1-1.6-0.2c0.1-0.5,0-1.2,0.3-1.4
	c0.6-0.4,1.4-0.7,2.1-0.7c0.9,0,1.7,0.3,2.6,0.4c0.8,0.1,1.5,0,1.2-1.1c-0.2-0.8,0.4-0.9,1-0.7c0.4,0.1,0.7,0.3,1.1,0.4
	c1.2,0.4,2.5,0.7,3.7,1c0.1-0.3,0.2-0.4,0.2-0.5c-0.2-0.6-0.4-1.3-0.6-1.9c0.7,0.1,1.4,0.1,2.1,0.4c1.5,0.6,2.9,1.4,4.3,2
	c0.4,0.2,0.9,0.3,1.2,0.1c3.5-1.7,7-3.5,9.8-6.2c0.9-0.8,1.7-1.8,1-2.8c-1,1-2,2.1-3.2,3c-0.6,0.5-1.6,0.5-2.4,0.7
	c-0.9,0.2-1.9,0.4-3.1,0.7c-0.7-0.8-1.3-0.2-1.8,0.8c0,0,0,0.1-0.1,0.1c-0.5,0.4-1.1,0.8-1.6,1.2c-0.1-0.6-0.2-1.1-0.4-1.8
	c-0.4,0.2-0.8,0.6-1.2,0.8c-0.8,0.4-1.7,0.7-2.3-0.2c-0.6-0.9,0.5-1.3,1-1.7c0.8-0.7,1.7-1.3,2.5-1.9c0.2-0.1,0.2-0.4,0.5-1
	c-0.6,0.4-0.9,0.6-1.2,0.7c-1,0.5-2.1,1-3.1,1.5c-0.8,0.4-1.6,0.7-2.3,1.2c-0.7,0.5-1.3,0.2-1.5-0.6c-0.1-0.5-0.3-1.1-0.7-1.4
	c-0.7-0.6-0.6-1,0-1.5c0.7-0.5,1.6-0.9,2.4-1.4c0-0.1-0.1-0.3-0.1-0.4c-0.5,0.1-1.1,0.1-1.5,0.4c-0.7,0.4-1.2,1-1.8,1.5
	c-0.5,0.3-1,0.7-1.5,0.8c-0.8,0.3-1.8,0.5-2.2-0.4c-0.2-0.5,0.5-1.3,0.9-1.9c0.3-0.4,0.8-0.5,1.2-1.1c-0.6,0-1.1,0.1-1.7,0.1
	c-2,0.2-4-0.1-5.7-1.2c-0.4-0.3-0.6-0.9-0.9-1.3c0.4-0.2,0.9-0.6,1.3-0.7c1.1-0.2,2.2-0.2,3.3-0.3c0.6-0.1,1.2-0.2,1.4-0.3
	c0.2-1,0.3-1.7,0.4-2.4c0.9,0.2,1.8,0.2,2.5,0.6c2.1,1.1,4,2.3,6.1,3.4c0.7,0.3,1.5,0.4,2.3,0.3c-0.6-0.4-1.3-0.8-1.8-1.3
	c-0.3-0.2-0.3-0.7-0.5-1.1c0.4-0.1,0.8-0.5,1.2-0.4c0.9,0.3,1.9,0.5,2.7,1.1c3.7,2.8,7.9,2,12,1.5c0.8-0.1,0.9-0.6,0.8-1.3
	c-0.1-0.3-0.1-0.5-0.2-0.8c-0.2-0.5-0.5-1-0.8-1.7c-0.2,0.3-0.5,0.4-0.5,0.5c-0.4,1.6-1.9,1.4-3,1.9c-0.6,0.3-1.2-0.1-1.1-1
	c0-0.4,0.1-0.9,0.1-1.4c-0.8,0.3-1.4,0.7-2.1,0.8c-0.5,0.1-1-0.3-1.5-0.5c0.2-0.4,0.4-0.9,0.7-1.3c0.3-0.4,0.8-0.7,1.3-1.1
	c-1-0.4-1.7-0.4-2.3,0.3c-0.9,0.9-1.5,0.7-2.6-0.1c-0.7-0.5-1.8-0.5-2.7-0.6c-0.3,0-0.6,0.3-1,0.3c-0.8,0.2-2.2-0.6-2.1-1.4
	c0.1-0.5,0.7-1.2,1.2-1.4c1-0.4,2.1-0.5,3.2-0.7c-0.1-1.1-2.3-1-1.6-2.6c-0.9-0.5-1.7-1.4-3-1.2c-0.2,0-0.8-0.5-0.8-0.9
	c0-0.3,0.3-0.8,0.7-1c0.7-0.3,1.5-0.4,2.5-0.7c-0.6-0.4-1.1-0.6-1.5-0.9c-0.5-0.4-1.2-0.9-1.5-1.5c-0.3-0.6-0.1-1.3-0.1-2
	c0.6,0,1.2-0.1,1.7,0.2c1.8,1,3.6,2.1,5.3,3.2c1,0.6,1.9,1.2,2.7-0.4c0.2-0.4,1.1-0.4,2.1-0.9c-0.4-0.1-0.8-0.2-1.1-0.4
	c-0.5-0.4-1-0.8-1.4-1.3c-0.6-0.7-1.3-1.5-0.7-2.4c0.2-0.2,1.4,0.2,2.1,0.5c0.6,0.2,1.2,0.6,2,1c0-1.3,0-2.3,0-3.7
	c-0.6,0.4-0.9,0.6-1.3,0.9c-0.9,0.6-2,0.4-2.4-0.4c-0.6-1.1-0.1-1.6,0.9-2c1-0.3,0.8-1,0.3-1.6c-0.8-1.1-1.8-2.1-2.5-3.3
	c-0.4-0.7-0.8-2-0.4-2.3c0.8-0.9,1.7,0,2.5,0.6c0.6,0.5,1.4,0.8,2,1.2c0.2-0.2,0.3-0.3,0.3-0.3c0.1-0.9,0-2.2,1.2-2.1
	c0.5,0,1.1,1.3,1.5,2c0.2,0.4,0,1.1,0.2,1.6c0.5,1.4,1.1,2.8,1.7,4.6c0.3-0.6,0.5-0.7,0.5-0.9c0.3-3,0.2-5.8-2.2-8.1
	c-0.9-0.9-1.6-1.9-2.1-3c-0.3-0.6-0.3-1.4-0.4-2.1c0.2-0.1,0.4-0.2,0.6-0.3c1.4,1.4,2.9,2.8,4.3,4.1c0.1,0,0.2,0,0.4,0
	c0-3.3,0-6.6,0-9.9c0.2,0,0.3-0.1,0.5-0.1c1,0.8,1.9,1.7,2,3.1c0.1,1,0,1.9,0,2.9c0.1,0.8,0.2,1.6,0.4,2.3c0.2,0,0.3,0.1,0.5,0.1
	c0.3-0.5,0.6-1,1-1.4c0.7-0.7,1.5-1.3,2.3-1.8c0.3-0.2,1,0,1.2,0.2c0.2,0.2,0.1,0.9-0.1,1.2c-0.8,1.2-1.6,2.3-2.5,3.4
	c-2.3,2.8-3.2,5.2-2.8,8.2c1-0.8,2.1-1.2,2.5-2.7c0.3-1.5,1.2-2.8,2.8-4c0.1,1,0.2,1.6,0.3,2.3c1.9-1.1,3.7-2.2,6-2.3
	c0.1,0.1,0.2,0.3,0.3,0.4c-1.2,1-2.4,2.1-3.6,3.2c1.3,0.7,2.4,1.3,3.6,1.9c0.2,0.1,0.4,0.5,0.3,0.5c-0.3,0.3-0.6,0.7-0.8,0.7
	c-1.6,0-3.2-0.1-4.9-0.2c-0.7,0-1.4,0-2.1,0c0,0.2-0.1,0.3-0.1,0.5c0.4,0.2,0.7,0.4,1.1,0.5c1.9,0.1,3,1.5,4.2,2.8
	c0.7,0.7,0.4,1.2-0.5,1.4c-0.1,0-0.2,0.1-0.3,0c-1.6-0.5-2.8-0.1-4,1.2c-0.6,0.6-1.2,0.1-1.2-0.8c0-0.4,0.1-0.8,0.1-1.2
	c-1.8-0.3-3,0.4-3.1,2.1c-0.1,1,0.2,2,0.4,3.1c0.1,1,0.2,1.9,0.3,2.9c0.1,1,0.1,2,0.1,3c0,0.2,0.1,0.4,0.2,0.7
	c0.3-0.1,0.6-0.1,0.8-0.2c2.7-1.7,5.3-3.5,6.3-6.8c0.4-1.2,1.1-2.2,1.7-3.3c0.6-1,1.4-1,1.9-0.1c0.8,1.3,1.4,0.9,2.2,0
	c0.6-0.7,1.2-1.4,1.9-1.9c0.4-0.3,1-0.2,1.5-0.3c0,0.6,0.2,1.2,0,1.7c-0.5,1-1.3,1.9-2.1,3c1.2,0.1,2.1,0.1,3.1,0.2
	c0.4,0.1,0.7,0.4,1.1,0.6c-0.2,0.4-0.4,0.8-0.7,1.1c-0.9,0.9-2,1.8-2.8,2.8c-0.6,0.7,0,1,0.7,1.1c0.7,0.1,1.5,0.1,2.2,0.4
	c0.4,0.2,0.7,0.8,1,1.2c-0.4,0.3-0.8,0.6-1.2,0.8c-1,0.6-2.2,0.7-2.7,2c-0.5,1.2-1.2,0.5-1.8,0.1c-1.4-0.8-1.6-0.7-2.3,0.7
	c-0.4,0.9-0.1,1.2,0.7,1.3c1.1,0.2,2.2,0.3,3.3,0.4c0.5,0.1,1,0.3,1.6,0.5c-0.9,1.7-2.3,2-3.9,2.3c0.2,0.5,0.4,0.9,0.6,1.5
	c-0.9,0.4-1.7,0.8-2.6,1.2c1.1,0.7,2,0.1,2.9-0.3c0.7-0.3,1.5-0.7,2.3-0.7c0.6,0,1.3,0.3,1.7,0.7c0.2,0.2-0.3,1-0.6,1.8
	c1,0.8,2.4,1.2,3.8,1.3c1,0.1,1.7,0.3,2.3,1.2c0.3,0.5,1.1,0.8,1.7,1.1c0.5,0.3,0.9,0.6,1.7,1.1c-0.9,0.5-1.6,1.1-2.3,1.3
	c-1.2,0.5-2.5,1-3.8,1.1c-0.6,0.1-1.3-0.6-2.3-1.1c-0.2,0.5-0.7,1.1-0.9,1.8c-0.4,1.3-0.8,1.6-1.9,0.8c-1.3-0.9-2.6-1.9-3-3.5
	c0-0.2-0.3-0.3-0.4-0.4c-0.6,0.4-1.1,0.7-1.7,1.2c0.2,0.6,0.5,1.3,0.7,2c-1.8,0.9-2.9,0.3-4.9-2.8c-0.2,0.7-0.4,1.4-0.7,2
	c-0.5,1-1.2,1-1.9,0.2c-1.1-1.2-2-2.5-1.8-4.4c0.1-0.5-0.2-1-0.3-1.5c-0.1,0-0.2,0-0.3,0c-0.1,0.3-0.3,0.6-0.2,0.8
	c0.6,1.9,1.1,3.8,2,5.5c0.4,0.7,1.7,1,2.6,1.2c0.8,0.2,1.8,0,2.6,0c0.4,0,1.2,0.3,1.2,0.5c0.1,0.4-0.2,1-0.5,1.4
	c-0.2,0.3-0.5,0.5-0.9,0.9c1.7,0.8,3.2,1.6,4.9,1c1.6-0.6,3.1-1.6,4.6-2.5c0.4-0.2,0.8-0.4,1.2-0.6c0.1,0.4,0.2,0.9,0.3,1.3
	c0,0.1,0,0.3,0.1,0.6c1-0.3,1.9-0.5,3-0.8c-0.1,1-0.1,1.8,1,2c0.1,0,0.1,0.9,0.2,1.6c0.7-0.3,1.4-0.5,2-0.8c1.2-0.5,2.5-1,3.7-1.3
	c0.6-0.2,1.4-0.3,1.5,0.8c0,0.3,0.7,0.6,1.1,0.6c1,0.1,2,0.1,3,0.3c0.4,0.1,0.8,0.5,1.2,0.8c-0.4,0.5-0.6,1.2-1.1,1.4
	c-1,0.3-2.2,0.2-3.2,0.3c-0.3,0-0.5,0-1.1,0c0.6,0.5,1.1,0.9,1.6,1.4c-1.3,0.5-2.5,0.9-3.7,1.3c-0.1,0.2-0.2,0.3-0.3,0.5
	c0.6,0.3,1.2,0.5,1.9,0.8c-0.1,0.2-0.3,0.5-0.4,0.7c-0.9-0.2-1.8-0.2-2.7-0.6c-0.9-0.4-1.6-1.1-2.4-1.5c-0.3-0.2-0.7-0.2-1.1-0.3
	c-0.1,0.1-0.2,0.2-0.2,0.3c1.1,1.1,2.2,2.2,3.4,3.4c-1.1,0.8-2,0.3-2.9-0.1c-0.6-0.2-1.1-0.7-1.7-1c-0.6-0.4-1.3-0.6-2-0.9
	c-0.1,0.7-0.4,1.5-0.4,2.2c0.1,1.4-0.4,1.9-1.8,1.4c-0.7-0.3-1.4-0.9-2-1.4c-0.3-0.3-0.4-0.8-0.7-1.3c-0.5,1.1-0.7,1.6-0.9,2.1
	c-0.7-0.3-1.5-0.5-2-1c-0.9-0.9-1.4-1.1-3.1-0.8c0.4,0.6,0.6,1.3,1,1.6c1.1,0.8,2.1,1.8,3.4,2.3c2.1,0.9,4.3,1.6,6.5,2.2
	c1.4,0.5,2.8,0.1,4-0.8c0.9-0.7,1.8-1.4,2.7-2.1c0.6-0.4,1.2-0.7,1.8-1c0.1,0.1,0.1,0.2,0.2,0.3c-0.4,0.6-0.8,1.3-1.3,2.1
	c0.6,0,1,0.1,1.5,0.1c-0.2,0.4-0.3,0.8-0.5,1.4c2.2-0.2,3.6-2.2,5.8-2.6c-0.4,0.7-0.6,1.3-1,2c2,0,3.8,0,5.6,0
	c0.1,0.2,0.1,0.3,0.2,0.5c-1,0.6-2,1.5-3.1,1.9c-2,0.7-2,0.6-1.3,2.4c-2.1,1.3-3.5-0.5-5.1-1.5c-0.1,0.1-0.2,0.2-0.3,0.4
	c0.4,0.7,0.7,1.4,1.2,2.2c-0.4,0.1-0.7,0.3-1.2,0.5c0.3,0.5,0.5,1.1,1,2c-1.4-0.3-2.4-0.5-3.6-0.7c0,0.8,0.3,1.8-0.1,2.3
	c-0.5,0.8-1.5,1.4-2.4,1.7c-0.9,0.3-3-1.2-3.4-2.2c-0.4,0.5-0.7,1.2-1.2,1.3c-0.5,0.1-1.2-0.3-1.8-0.6c-0.6-0.3-1.2-0.8-1.9-1.3
	c-0.1,0.8-0.2,1.5-0.4,2.4c-1.8-0.7-3.4-1.4-5.2-2.2c0,0.1-0.2,0.4-0.3,0.9c-0.7-0.3-1.4-0.5-2.1-0.8c-0.1,0.1-0.1,0.1-0.2,0.2
	c0.3,0.3,0.5,0.5,0.9,0.8c3.5,2.5,7.3,4.2,11.5,5.2c2.6,0.6,5,0.3,7.2-1.2c0.4-0.3,0.9-0.5,1.4-0.7c0.9,1.5,0.8,2.3-0.8,3.7
	c2.2,0.3,4.2,0.2,6.1-0.8c0.2-0.1,0.4-0.3,0.7-0.4c0.7-0.1,1.4-0.2,2.1-0.3c-0.1,0.6-0.1,1.1-0.2,1.4c2.2,0.6,4.4,1.2,7.1,2
	c-2.2,1.6-4.2,2.9-6.2,4.3c0.3,0.2,0.6,0.4,1.3,0.8c-1.1,0.6-2,1.1-2.9,1.6c0.4,0.6,0.7,1.2,1.1,1.8c-2.6,1.8-5.3,0-7.8,0.6
	c-0.1,0.6-0.1,1.1-0.2,1.6c-0.6-0.1-1.2-0.1-1.7-0.4c-0.8-0.3-1.5-0.8-2.3-1.2c-0.1,0.1-0.2,0.2-0.3,0.2c-0.3,1.8-0.3,1.8-2.1,1.4
	c-0.6-0.1-1.3-0.2-2-0.2c-1.4,0-2.8,0.1-3.5-1.5c0-0.1-0.2-0.1-0.3-0.2c-0.1,0-0.2,0.1-0.2,0.1c0.9,4.9,4.9,5.3,8.6,5.9
	c3.4,0.6,6.5-0.1,9.1-2.6c0.3-0.2,0.6-0.4,1-0.5c0.1,0.1,0.2,0.2,0.3,0.3c-0.3,0.6-0.6,1.3-1.1,2.3c1.3-0.4,2.2-0.7,3.2-1
	c0.1,0.1,0.2,0.1,0.2,0.2c-0.4,0.5-0.8,0.9-1.2,1.4c-0.5,0.5-0.9,0.9-1.7,1.6c2.6-0.5,4.7-0.9,7-1.3c0,0.4,0,0.7-0.1,1
	c0.7,0.7,2.5-1,2.5,1.3c1-0.1,2.2-0.1,2.9,1.2c-0.7,1.2-1.4,2.2-3.1,2c0.3,0.2,0.7,0.4,1,0.6c0,0.1-0.1,0.3-0.1,0.4
	c-0.5,0.1-1,0.3-1.5,0.4c-0.6,0.1-1.1,0.1-1.7,0.3c-1.2,0.5-1.7,1.3-1.1,2.7c-2.3,0.7-4.4-0.2-6.8-0.1c1.1,1,2.3,2,3.4,3
	c-0.1,0.1-0.1,0.3-0.2,0.4c-0.4,0.1-0.8,0.1-1.2,0.3c-0.6,0.2-1.2,0.5-1.7,0.7c-0.2,0.1-0.3,0.3-0.4,0.3c-1.7,0-3.5,0.9-5-0.8
	c-0.1-0.2-0.4-0.3-0.5-0.4c0,0-0.1,0-0.3-0.1c0.2,1.2,0.2,2.3-1.6,2.1c2.1,2.3,12.5,2.7,19.4,1c0.1,0.1,0.2,0.2,0.3,0.3
	c-0.7,0.7-1.4,1.4-2.1,2.1c0,0,0.1,0,0.2,0.1c0.3,0.2,0.6,0.4,0.9,0.7c-0.3,0.2-0.7,0.6-1,0.6c-0.9,0.1-1.7,0-2.7,0.3
	c0.6,0.5,1.2,1,1.7,1.6c0.3,0.4,0.4,0.9,0.6,1.3c-0.5,0-0.9,0.2-1.4,0.1c-0.9-0.1-1.7-0.5-2.6-0.6c-0.4-0.1-0.9,0.1-1.4,0.2
	c0.8,2.2,2.7,3.4,5.3,2.9c2.8-0.5,5.5-1.3,8.2-2c0.9-0.2,1.8-0.4,2.7-0.6c0.1,0.1,0.2,0.3,0.2,0.4c-0.4,0.5-0.8,1-1.2,1.5
	c-1.4,1.5-1.4,1.5-0.2,2.9c-0.2,0.7-0.3,1.4-0.5,2c-0.1,0.3-0.4,0.6-0.7,0.6c-1.2,0-1.3,0.6-1,1.8c-0.6-0.2-1.1-0.3-1.5-0.4
	c-0.5-0.1-0.9-0.3-1.7-0.6c0.6,0.7,0.9,1.2,1.3,1.7c-1.7,1.3-4.5,1.4-6,0.2c-0.7-0.6-1.3-0.8-2.1-0.1c-0.4,0.3-1.1,0.2-1.6,0.3
	c-0.6,0.1-1.3,0.1-1.9,0.2c0,0.1-0.1,0.3-0.1,0.4c0.4,0.3,0.8,0.8,1.3,0.9c2.8,0.9,5.7,1.9,8.6,2.6c0.9,0.2,1.9-0.1,2.8-0.3
	c1.1-0.2,2.1-0.6,3.2-1c0.9-0.3,1.5-0.2,1.2,1c-0.3,1,0.3,1.2,1.1,1c0.6-0.1,1.3-0.3,1.9-0.5c1-0.3,2-0.7,3-0.9
	c0.7-0.1,1.4,0.2,2.1,0.2c-0.4,0.7-0.6,1.6-1.2,2.2c-0.9,0.9-2,1.7-3.2,2.3c-1.1,0.6-2.3,0.9-3.6,1.4c0.8,0.4,1.7,0.9,2.6,1.4
	c0,0.1,0,0.2,0,0.3c-1.5,0.1-3.1,0.3-4.9,0.4c0.9,0.8,1.5,1.4,2.2,2c-0.1,0.2-0.1,0.3-0.2,0.5c-1.1-0.3-2.5-0.3-3.4-0.9
	c-1.3-1-2.3,0.1-3.4,0.1c-0.6,0-1.3,0.4-1.9,0.7c-0.3,0.1-0.6,0.3-0.8,0.5c0.2,0.3,0.3,0.7,0.6,0.8c0.8,0.3,1.6,0.7,2.5,0.8
	c2.7,0.4,5.5,0.7,8.3,1c0.7,0.1,1.4,0.2,2.4,0.4c-0.7,0.6-1,0.8-1.7,1.4c4.8,0.5,9.3,0,13.7-0.6c0,0.2,0.1,0.4,0.1,0.6
	c-2,0.8-4.1,1.6-6.4,2.5c1.1,0.4,1.7,1,1.4,2c-0.1,0.2,0.5,0.7,0.8,0.9c0.5,0.3,1.1,0.4,2,0.7c-0.8,0.4-1.2,0.7-1.6,0.8
	c-2.6,0.7-5.3,1.4-7.9,2.1c-0.1,0-0.2,0.1-0.2,0.1c-1.8,0.8-2.6,0.9-4.5,0.9c0.3,0.1,0.5,0.3,0.8,0.5c0.2,0.2,0.4,0.4,0.7,0.7
	c-1.4,0.8-2.7,1.6-4,2.3c-0.3,0.2-1-0.2-1.5-0.4c-0.5-0.2-0.9-0.5-1.4-0.8c-0.2,0.5-0.3,0.9-0.6,1.6c-0.9-0.6-1.7-1.2-2.6-1.7
	c0,0.4,0.1,0.7,0.1,1.1c-3.8-0.2-7.5,0.2-11-1.5c-0.9-0.4-1.8-1.1-2.9-0.1c-0.3,0.3-1.2,0-1.8,0c-0.1,0.1-0.2,0.2-0.3,0.3
	c0.6,0.6,1.2,1.4,1.9,1.7c5,2.3,10.2,4.1,15.7,5c1.7,0.3,3.5-0.3,5.2-0.5c0.3,0,0.6-0.2,0.9-0.3c0.7-0.1,1.4-0.1,2-0.1
	c-0.1,0.6-0.3,1.2-0.4,1.8c0,0.1,0,0.3,0,0.5c3.8,0.5,7.6-0.7,11.3-0.1c0.1,0.2,0.1,0.3,0.2,0.5c-0.7,0.5-1.4,1-2.2,1.5
	c1.3,0.2,2.5,0.3,3.7,0.6c0.5,0.1,0.9,0.6,1.4,1c-0.5,0.3-1,0.9-1.5,0.9c-2.1,0-4.2-0.2-6.3-0.4c-0.5,0-1.1-0.2-1.6-0.3
	c1.7,1.5,4.4,1.3,5.7,3.3c0,0.2,0,0.3-0.1,0.5c-0.7,0-1.5,0.1-2.2,0c-0.9-0.1-1.7-0.4-2.6-0.6c-0.8-0.2-1.5-0.3-2.2,0.4
	c-0.3,0.4-1.1,0.5-1.7,0.4c-1.6-0.1-3.2-0.3-4.5,1c-0.2,0.2-0.6,0.2-1,0.3c0.2,1.6,2.5,2.2,2,4.4c-1.1-0.8-2.2-1.5-3.2-2.5
	c-1.2-1.1-1-1.1-2,0.1c-0.3,0.4-1.2,0.6-1.8,0.6c-0.6,0-1.2-0.4-2-0.7c0.1,1,0.2,1.9,0.3,3.1c-2.2-1.2-4.1-2.3-6-3.3
	c-0.1,0.1-0.2,0.2-0.4,0.3c0.1,1,0.2,1.9,0.4,3.2c-1.2-1-2.2-1.9-3.3-2.9c-0.2,0.5-0.3,0.9-0.6,1.5c-1.4-0.9-2.8-1.7-4.2-2.5
	c-0.1,0-0.1,0.1-0.2,0.1c0.4,0.5,0.8,1.1,1.3,1.5c5.4,3.4,11.1,6.1,17.3,7.9c3.1,0.9,6,0.1,8.8-1.4c1.1-0.6,2.3-1.2,3.5-1.7
	c0.5-0.2,1.1-0.3,1.6-0.4c0.1,0.1,0.2,0.3,0.3,0.4c-0.9,1-1.9,2-3,3.2c3.2-0.4,6-1.7,9-1.4c0.1,0.1,0.1,0.3,0.2,0.4
	c-0.4,0.4-0.8,0.9-1.3,1c-1.6,0.6-3.2,1-4.8,1.5c-1,0.3-2.1,0.6-3.1,1c0,0.2,0,0.3,0,0.5c2.6,0.4,5.2,0.8,7.8,1.3c0,0.2,0,0.3,0,0.5
	c-1.5,1-3.3,0.1-4.9,0.5c0,0.1-0.1,0.2-0.1,0.4c1.4,0.6,2.8,1.2,4.2,1.8c0,0.2-0.1,0.4-0.1,0.6c-1.9-0.1-3.8-0.2-6.1-0.3
	c0.7,0.7,1.2,1.1,2.1,1.8c-1.3,0.3-2.2,0.6-3.2,0.9c1,0.4,1.9,0.8,2.8,1.2c0,0.1-0.1,0.3-0.1,0.4c-1.5,1-3.4,0.2-5.2,0.6
	c0.7,0.6,1.2,1,1.8,1.4c0,0.1,0,0.3-0.1,0.4c-0.7,0.1-1.5,0.2-2.2,0.3c-0.7,0-1.5-0.1-2.4-0.1c0.4,0.6,0.7,1,0.9,1.4
	c0,0.1-0.1,0.3-0.1,0.4c-1.2-0.2-2.3-0.3-3.6-0.5c0.5,1.3,1.5,1.7,2.5,1.9c4.3,0.8,8.7,1.6,13,2.3c0.4,0.1,0.9,0.1,1.6,0.2
	C886.9,295.2,884.7,294.8,882.6,295.2z M771.6,256.2c0.9,0.2,1.6,0.6,1.9,0.4c1-0.6,1.7-0.1,2.6,0.3c0.6,0.2,1.5,0.6,1.7,0.5
	c0.9-1.1,1.9-0.6,2.9-0.5c1.8,0.1,3.5-0.2,5-1.4c-0.1-0.2-0.1-0.3-0.2-0.5c-1,0.3-2,0.7-3.3,1.1c-0.2-0.3-0.7-1-1.2-1.8
	c-1.1,1.3-1.3-0.3-2.1-0.8c-0.7,0.9-1.3,1.7-2,2.7c-0.9-1-1.7-1.9-2.6-2.9C773.4,254.3,772.7,255.1,771.6,256.2z M806.3,140.7
	c-0.7,0.4-1.2,0.7-1.6,1c-1.4,1.2-2.8,1.2-4.1,0c-0.4-0.4-0.7-0.8-1.2-1c-0.6-0.3-1.1-0.1-1.1,0.7c0.1,1.6,1.2,2.7,2.8,2.6
	c1.8-0.1,3.5-0.3,5.2-0.6c0.9-0.1,1.8-0.5,2.6-0.9c0.3-0.2,0.4-0.7,0.6-1.1c-0.4,0.1-0.9,0.1-1.3,0.2c-0.6,0.2-1.1,0.5-1.7,0.8
	C806.4,141.7,806.4,141.3,806.3,140.7z M828.3,108.4c-0.1-0.2-0.1-0.3-0.2-0.5c-0.4-0.1-0.9-0.3-1.1-0.1c-0.8,0.6-1.7,1.3-2.2,2.2
	c-0.4,0.8-0.9,1-1.7,0.9c-0.6,0-1.2-0.2-1.7-0.1c-0.5,0.1-1.2,0.4-1.3,0.8c-0.2,0.5,0,1.1,0,1.8c1.6-0.8,3-1.4,4.3-2.1
	C825.8,110.3,827,109.3,828.3,108.4z M810.3,102.8c0.6,2.8,3.6,2.9,4.9,5.2C815.6,105.5,813,102.9,810.3,102.8z M815.3,101
	c1-2.6-0.6-6.1-3.1-6.9C813.2,96.4,814.2,98.6,815.3,101z M822.1,129.9c-0.1,0-0.3,0-0.4,0c-0.9,1.5-0.7,4.6,0.4,5.5
	C822.1,133.5,822.1,131.7,822.1,129.9z M821.4,117.1c1.4,1.7,3.7,1.9,4.4,0.3C824.3,117.3,822.8,117.2,821.4,117.1z M826.7,118.3
	c0,0.4-0.5,1.4,0.7,1.5c0.6,0,1.2-0.7,1.7-1.1c0.1-0.1,0.1-0.4,0-0.6c0-0.1-0.3-0.1-0.4-0.1C828.1,118,827.5,118.1,826.7,118.3z
	 M799,181.5c0.1,0.2,0.2,0.5,0.3,0.7c1.4-0.7,2.9-1.4,4.3-2c-0.1-0.2-0.1-0.3-0.2-0.5C801.9,180.3,800.4,180.9,799,181.5z
	 M857.6,206c0-0.1,0-0.2,0-0.3c-1.1,0-2.3,0-3.4,0c0,0.1,0,0.2,0,0.3C855.3,206,856.5,206,857.6,206z"/>
</svg>
